<svg width="237" height="198" viewBox="0 0 237 198" fill="none" xmlns="http://www.w3.org/2000/svg">
<g clip-path="url(#clip0_2_76)">
<path d="M111.32 198C163.013 198 204.918 195.859 204.918 193.217C204.918 190.576 163.013 188.435 111.32 188.435C59.6264 188.435 17.7209 190.576 17.7209 193.217C17.7209 195.859 59.6264 198 111.32 198Z" fill="#F2F2F2"/>
<path d="M166.004 45.9525H164.941V16.8461C164.941 12.3782 163.164 8.09335 160.003 4.9341C156.841 1.77485 152.553 5.88651e-06 148.082 9.53705e-07H86.3686C81.8974 -7.50255e-06 77.6093 1.77483 74.4476 4.93406C71.2859 8.0933 69.5097 12.3781 69.5097 16.846V176.526C69.5097 180.994 71.2859 185.279 74.4476 188.438C77.6092 191.598 81.8973 193.372 86.3686 193.372H148.082C152.553 193.372 156.841 191.598 160.003 188.438C163.164 185.279 164.941 180.994 164.941 176.526V66.671H166.004L166.004 45.9525Z" fill="#3F3D56"/>
<path d="M161.352 16.9636V176.409C161.352 179.746 160.026 182.946 157.664 185.305C155.303 187.664 152.101 188.99 148.762 188.99H86.7525C83.4133 188.99 80.2109 187.664 77.8497 185.305C75.4885 182.946 74.162 179.746 74.1619 176.409V16.9636C74.162 13.6269 75.4885 10.4269 77.8497 8.06754C80.2109 5.70816 83.4133 4.38264 86.7525 4.38258H94.275C93.9053 5.29021 93.7646 6.2747 93.8651 7.24945C93.9656 8.2242 94.3042 9.15934 94.8513 9.97261C95.3983 10.7859 96.137 11.4524 97.0023 11.9134C97.8677 12.3745 98.8331 12.616 99.8138 12.6167H135.169C136.149 12.616 137.115 12.3745 137.98 11.9134C138.845 11.4523 139.584 10.7859 140.131 9.97259C140.678 9.15932 141.017 8.22419 141.117 7.24944C141.218 6.2747 141.077 5.29021 140.707 4.38258H148.762C152.101 4.38264 155.303 5.70816 157.664 8.06754C160.026 10.4269 161.352 13.6269 161.352 16.9636V16.9636Z" fill="white"/>
<path d="M141.376 85.7157C140.964 85.931 140.544 86.1347 140.118 86.3268C139.73 86.5022 139.335 86.6669 138.935 86.8211C138.789 86.8769 138.64 86.9327 138.491 86.9884C137.313 87.4151 136.104 87.7483 134.874 87.9848C134.266 88.1044 133.649 88.1983 133.024 88.2665C132.508 88.3249 131.987 88.3666 131.46 88.3914C131.085 88.41 130.71 88.4179 130.333 88.4179C128.837 88.4185 127.345 88.2789 125.876 88.0008C125.493 87.9317 125.118 87.8493 124.743 87.759C122.93 87.3247 121.174 86.6772 119.513 85.83C119.364 85.7556 119.215 85.6759 119.066 85.5988C118.846 85.4819 118.63 85.3597 118.415 85.2322C118.519 85.0887 118.63 84.9478 118.745 84.8097C119.989 83.2689 121.544 82.0074 123.309 81.1074C125.074 80.2074 127.008 79.6892 128.987 79.5864C130.966 79.4836 132.944 79.7986 134.793 80.5109C136.641 81.2232 138.319 82.3167 139.717 83.7203C140.202 84.2066 140.651 84.727 141.062 85.2773C141.171 85.4208 141.275 85.5669 141.376 85.7157Z" fill="#47B0EB"/>
<path d="M130.863 74.0442C137.312 74.0442 142.539 68.8207 142.539 62.3773C142.539 55.9338 137.312 50.7103 130.863 50.7103C124.415 50.7103 119.188 55.9338 119.188 62.3773C119.188 68.8207 124.415 74.0442 130.863 74.0442Z" fill="#2F2E41"/>
<path d="M133.969 74.0607C138.18 71.7604 139.728 66.4843 137.426 62.2763C135.124 58.0683 129.844 56.5218 125.632 58.8221C121.421 61.1224 119.874 66.3984 122.176 70.6064C124.478 74.8144 129.758 76.361 133.969 74.0607Z" fill="#A0616A"/>
<path d="M138.932 60.9795C136.946 62.3472 134.589 63.075 132.177 63.0654C133.038 63.6614 134.017 64.0641 135.048 64.2455C131.841 64.9328 128.527 64.9514 125.313 64.3002C124.599 64.1857 123.909 63.9491 123.275 63.6008C122.959 63.4245 122.684 63.1837 122.467 62.894C122.251 62.6044 122.097 62.2725 122.017 61.9198C121.804 60.7006 122.755 59.5929 123.743 58.8464C125.255 57.7209 127 56.9454 128.849 56.5761C130.699 56.2069 132.607 56.253 134.436 56.7111C135.631 57.0197 136.828 57.541 137.604 58.4996C138.38 59.4581 138.609 60.936 137.87 61.9231L138.932 60.9795Z" fill="#2F2E41"/>
<path d="M130.333 40.5915C125.114 40.5907 120.037 42.2951 115.878 45.4449C111.718 48.5946 108.703 53.0171 107.292 58.0381C105.881 63.0591 106.152 68.4034 108.063 73.2563C109.974 78.1093 113.421 82.2048 117.878 84.9186L118.032 85.009C118.16 85.086 118.287 85.1604 118.415 85.2321C118.63 85.3597 118.846 85.4819 119.066 85.5988C119.215 85.6759 119.364 85.7556 119.513 85.83C121.174 86.6772 122.93 87.3247 124.743 87.759C125.118 87.8493 125.493 87.9317 125.876 88.0008C127.345 88.2789 128.837 88.4185 130.333 88.4179C130.71 88.4179 131.085 88.4099 131.46 88.3913C131.987 88.3674 132.508 88.3258 133.024 88.2665C133.649 88.1974 134.266 88.1035 134.874 87.9848C136.104 87.7483 137.313 87.4151 138.491 86.9884C138.64 86.9326 138.789 86.8768 138.935 86.821C139.336 86.6669 139.731 86.5022 140.118 86.3268C140.544 86.1355 140.963 85.9318 141.376 85.7157C145.515 83.5495 148.937 80.2295 151.225 76.1584C151.236 76.1372 151.249 76.1159 151.26 76.0946C152.48 73.9056 153.346 71.5372 153.826 69.0774C154.498 65.6146 154.396 62.0461 153.527 58.6272C152.658 55.2084 151.043 52.0239 148.798 49.3017C146.553 46.5795 143.733 44.387 140.541 42.8812C137.349 41.3754 133.863 40.5935 130.333 40.5915H130.333ZM150.823 75.7838C150.802 75.821 150.784 75.8582 150.762 75.8927C148.52 79.9037 145.146 83.1672 141.062 85.2773C140.655 85.4899 140.241 85.6891 139.82 85.8751C139.472 86.0319 139.116 86.1807 138.757 86.3189C138.605 86.3773 138.451 86.4358 138.297 86.4889C137.28 86.8602 136.237 87.1585 135.178 87.3817C134.392 87.5489 133.597 87.674 132.798 87.7563C132.306 87.8095 131.806 87.8467 131.303 87.8653C130.982 87.8785 130.657 87.8865 130.333 87.8865C128.886 87.8882 127.442 87.7539 126.02 87.4853C125.155 87.3259 124.3 87.1165 123.459 86.8582C122.178 86.4629 120.934 85.9589 119.739 85.3517C119.601 85.28 119.463 85.2082 119.327 85.1338C119.133 85.0302 118.936 84.9239 118.745 84.8097C118.601 84.73 118.457 84.6449 118.317 84.5599C118.234 84.5121 118.152 84.4616 118.069 84.4111C114.162 82.0132 111.045 78.5217 109.105 74.3698C107.165 70.2179 106.488 65.5882 107.157 61.0552C107.826 56.5221 109.813 52.2852 112.87 48.8701C115.928 45.4549 119.921 43.0118 124.355 41.8439C128.789 40.676 133.469 40.8346 137.814 42.3001C142.158 43.7655 145.977 46.4734 148.796 50.0877C151.614 53.702 153.309 58.0637 153.669 62.6316C154.03 67.1995 153.04 71.7727 150.823 75.7838H150.823Z" fill="#3F3D56"/>
<path d="M124.951 50.8713C124.825 49.5513 123.207 48.7387 121.941 49.1374C120.676 49.5361 119.845 50.8094 119.594 52.1114C119.473 52.6597 119.461 53.2265 119.56 53.7792C119.659 54.332 119.866 54.8598 120.169 55.3324C120.809 56.2523 121.985 56.8264 123.081 56.5929C124.333 56.3263 125.2 55.1051 125.448 53.8505C125.696 52.596 125.45 51.3026 125.204 50.0477L124.951 50.8713Z" fill="#2F2E41"/>
<path d="M142.762 52.757C142.636 51.437 141.018 50.6244 139.752 51.0231C138.487 51.4218 137.656 52.6952 137.405 53.9971C137.284 54.5455 137.272 55.1122 137.371 55.665C137.47 56.2177 137.677 56.7455 137.98 57.2181C138.62 58.138 139.796 58.7121 140.892 58.4786C142.144 58.212 143.011 56.9908 143.259 55.7363C143.507 54.4817 143.261 53.1884 143.015 51.9334L142.762 52.757Z" fill="#2F2E41"/>
<path d="M88.9676 74.0616C88.802 74.0614 88.6383 74.0268 88.4869 73.9598C88.3355 73.8928 88.1997 73.7949 88.0883 73.6725L74.8936 59.2892C74.7438 59.1263 74.5619 58.9962 74.3594 58.9072C74.1568 58.8181 73.9379 58.772 73.7166 58.7718H3.99105C2.93292 58.7706 1.91847 58.35 1.17026 57.6024C0.422052 56.8548 0.00118801 55.8411 0 54.7838V29.6583C0.0011873 28.601 0.422052 27.5873 1.17026 26.8397C1.91847 26.092 2.93292 25.6715 3.99105 25.6703H94.3258C95.3839 25.6715 96.3983 26.092 97.1465 26.8397C97.8947 27.5873 98.3156 28.601 98.3168 29.6583V54.7838C98.3156 55.8411 97.8947 56.8548 97.1465 57.6024C96.3983 58.3501 95.3839 58.7706 94.3258 58.7718H91.7647C91.3414 58.7723 90.9356 58.9405 90.6362 59.2396C90.3369 59.5388 90.1685 59.9443 90.1681 60.3673V72.8641C90.1691 73.1054 90.0966 73.3413 89.9603 73.5404C89.824 73.7395 89.6303 73.8925 89.4049 73.979C89.2655 74.0334 89.1172 74.0615 88.9676 74.0616V74.0616Z" fill="white"/>
<path d="M88.9676 74.0616C88.802 74.0614 88.6383 74.0268 88.4869 73.9598C88.3355 73.8928 88.1997 73.7949 88.0883 73.6725L74.8936 59.2892C74.7438 59.1263 74.5619 58.9962 74.3594 58.9072C74.1568 58.8181 73.9379 58.772 73.7166 58.7718H3.99105C2.93292 58.7706 1.91847 58.35 1.17026 57.6024C0.422052 56.8548 0.00118801 55.8411 0 54.7838V29.6583C0.0011873 28.601 0.422052 27.5873 1.17026 26.8397C1.91847 26.092 2.93292 25.6715 3.99105 25.6703H94.3258C95.3839 25.6715 96.3983 26.092 97.1465 26.8397C97.8947 27.5873 98.3156 28.601 98.3168 29.6583V54.7838C98.3156 55.8411 97.8947 56.8548 97.1465 57.6024C96.3983 58.3501 95.3839 58.7706 94.3258 58.7718H91.7647C91.3414 58.7723 90.9356 58.9405 90.6362 59.2396C90.3369 59.5388 90.1685 59.9443 90.1681 60.3673V72.8641C90.1691 73.1054 90.0966 73.3413 89.9603 73.5404C89.824 73.7395 89.6303 73.8925 89.4049 73.979C89.2655 74.0334 89.1172 74.0615 88.9676 74.0616V74.0616ZM3.99105 26.2017C3.07392 26.2027 2.19465 26.5672 1.54614 27.2152C0.89763 27.8633 0.532846 28.7419 0.53181 29.6583V54.7838C0.532847 55.7002 0.897634 56.5788 1.54614 57.2268C2.19465 57.8748 3.07392 58.2393 3.99105 58.2404H73.7166C74.0116 58.2407 74.3034 58.3022 74.5734 58.4209C74.8435 58.5396 75.086 58.713 75.2856 58.9301L88.4803 73.3134C88.5709 73.4122 88.6893 73.4813 88.8198 73.5117C88.9504 73.542 89.0871 73.5323 89.212 73.4838C89.337 73.4352 89.4443 73.3501 89.52 73.2395C89.5957 73.1289 89.6362 72.9981 89.6363 72.8641V60.3673C89.6369 59.8034 89.8613 59.2628 90.2603 58.864C90.6594 58.4653 91.2004 58.241 91.7647 58.2404H94.3258C95.2429 58.2393 96.1221 57.8748 96.7706 57.2268C97.4192 56.5788 97.7839 55.7002 97.785 54.7838V29.6583C97.7839 28.7419 97.4192 27.8633 96.7707 27.2152C96.1222 26.5672 95.2429 26.2027 94.3258 26.2017H3.99105Z" fill="#3F3D56"/>
<path d="M9.78957 36.7539C11.7183 36.7539 13.2819 35.1915 13.2819 33.2642C13.2819 31.3369 11.7183 29.7746 9.78957 29.7746C7.86081 29.7746 6.29725 31.3369 6.29725 33.2642C6.29725 35.1915 7.86081 36.7539 9.78957 36.7539Z" fill="#47B0EB"/>
<path d="M90.2514 52.5737H8.06542C7.82064 52.574 7.5782 52.526 7.35197 52.4326C7.12573 52.3392 6.92014 52.2022 6.74695 52.0293C6.57376 51.8565 6.43636 51.6512 6.34262 51.4253C6.24888 51.1993 6.20063 50.9571 6.20063 50.7125C6.20063 50.4679 6.24888 50.2257 6.34262 49.9998C6.43636 49.7738 6.57376 49.5685 6.74695 49.3957C6.92014 49.2228 7.12573 49.0858 7.35197 48.9924C7.5782 48.899 7.82064 48.8511 8.06542 48.8514H90.2514C90.745 48.852 91.2182 49.0483 91.567 49.3973C91.9158 49.7462 92.1117 50.2193 92.1117 50.7125C92.1117 51.2057 91.9158 51.6788 91.567 52.0278C91.2182 52.3767 90.745 52.5731 90.2514 52.5737V52.5737Z" fill="#E6E6E6"/>
<path d="M63.4769 44.6638H8.06542C7.82064 44.6641 7.5782 44.6161 7.35197 44.5227C7.12573 44.4293 6.92014 44.2923 6.74695 44.1194C6.57376 43.9466 6.43636 43.7413 6.34262 43.5154C6.24888 43.2894 6.20063 43.0472 6.20063 42.8026C6.20063 42.558 6.24888 42.3158 6.34262 42.0899C6.43636 41.8639 6.57376 41.6586 6.74695 41.4858C6.92014 41.3129 7.12573 41.1759 7.35197 41.0825C7.5782 40.9891 7.82064 40.9412 8.06542 40.9415H63.4769C63.9709 40.9415 64.4447 41.1375 64.794 41.4866C65.1433 41.8356 65.3395 42.309 65.3395 42.8026C65.3395 43.2962 65.1433 43.7696 64.794 44.1186C64.4447 44.4677 63.9709 44.6638 63.4769 44.6638Z" fill="#E6E6E6"/>
<path d="M147.595 159.269C147.37 159.183 147.176 159.03 147.04 158.831C146.903 158.632 146.831 158.396 146.832 158.155V145.658C146.831 145.235 146.663 144.829 146.364 144.53C146.064 144.231 145.659 144.063 145.235 144.062H142.674C141.616 144.061 140.602 143.641 139.853 142.893C139.105 142.145 138.684 141.132 138.683 140.074V114.949C138.684 113.891 139.105 112.878 139.853 112.13C140.602 111.383 141.616 110.962 142.674 110.961H233.009C234.067 110.962 235.082 111.383 235.83 112.13C236.578 112.878 236.999 113.891 237 114.949V140.074C236.999 141.132 236.578 142.145 235.83 142.893C235.082 143.641 234.067 144.061 233.009 144.062H163.283C163.062 144.063 162.843 144.109 162.641 144.198C162.438 144.287 162.256 144.417 162.106 144.58L148.912 158.963C148.8 159.085 148.665 159.183 148.513 159.25C148.362 159.317 148.198 159.352 148.032 159.352C147.883 159.352 147.734 159.324 147.595 159.269V159.269Z" fill="white"/>
<path d="M147.595 159.269C147.37 159.183 147.176 159.03 147.04 158.831C146.903 158.632 146.831 158.396 146.832 158.155V145.658C146.831 145.235 146.663 144.829 146.364 144.53C146.064 144.231 145.659 144.063 145.235 144.062H142.674C141.616 144.061 140.602 143.641 139.853 142.893C139.105 142.145 138.684 141.132 138.683 140.074V114.949C138.684 113.891 139.105 112.878 139.853 112.13C140.602 111.383 141.616 110.962 142.674 110.961H233.009C234.067 110.962 235.082 111.383 235.83 112.13C236.578 112.878 236.999 113.891 237 114.949V140.074C236.999 141.132 236.578 142.145 235.83 142.893C235.082 143.641 234.067 144.061 233.009 144.062H163.283C163.062 144.063 162.843 144.109 162.641 144.198C162.438 144.287 162.256 144.417 162.106 144.58L148.912 158.963C148.8 159.085 148.665 159.183 148.513 159.25C148.362 159.317 148.198 159.352 148.032 159.352C147.883 159.352 147.734 159.324 147.595 159.269V159.269ZM142.674 111.492C141.757 111.493 140.878 111.858 140.229 112.506C139.581 113.154 139.216 114.032 139.215 114.949V140.074C139.216 140.991 139.581 141.869 140.229 142.517C140.878 143.165 141.757 143.53 142.674 143.531H145.235C145.8 143.532 146.341 143.756 146.74 144.155C147.139 144.553 147.363 145.094 147.364 145.658V158.155C147.364 158.289 147.404 158.419 147.48 158.53C147.556 158.641 147.663 158.726 147.788 158.774C147.913 158.823 148.05 158.833 148.18 158.802C148.311 158.772 148.429 158.703 148.52 158.604L161.714 144.221C161.914 144.003 162.157 143.83 162.427 143.711C162.697 143.593 162.988 143.531 163.283 143.531H233.009C233.926 143.53 234.805 143.165 235.454 142.517C236.102 141.869 236.467 140.991 236.468 140.074V114.949C236.467 114.032 236.102 113.154 235.454 112.506C234.805 111.858 233.926 111.493 233.009 111.492H142.674Z" fill="#3F3D56"/>
<path d="M119.439 167.05C115.734 169.42 111.442 170.713 107.044 170.783C102.646 170.853 98.3147 169.697 94.5366 167.446C95.2012 166.21 96.0434 165.077 97.0362 164.085C98.5681 162.547 100.432 161.38 102.486 160.674C104.54 159.969 106.728 159.743 108.882 160.014C111.037 160.285 113.101 161.046 114.915 162.239C116.729 163.431 118.246 165.024 119.348 166.893C119.377 166.944 119.409 166.997 119.439 167.05Z" fill="#47B0EB"/>
<path d="M105.948 154.344C112.439 154.344 117.701 149.086 117.701 142.599C117.701 136.113 112.439 130.855 105.948 130.855C99.4567 130.855 94.1945 136.113 94.1945 142.599C94.1945 149.086 99.4567 154.344 105.948 154.344Z" fill="#2F2E41"/>
<path d="M114.694 150.883C117.011 146.647 115.453 141.336 111.214 139.021C106.975 136.705 101.659 138.262 99.3421 142.498C97.0247 146.734 98.5827 152.045 102.822 154.36C107.061 156.676 112.376 155.119 114.694 150.883Z" fill="#FFB8B8"/>
<path d="M97.826 141.192C99.825 142.569 102.198 143.302 104.625 143.292C103.759 143.892 102.773 144.297 101.736 144.48C104.964 145.172 108.3 145.191 111.535 144.535C112.254 144.42 112.948 144.182 113.587 143.831C113.905 143.654 114.182 143.411 114.4 143.12C114.618 142.828 114.772 142.494 114.853 142.139C115.068 140.912 114.111 139.797 113.116 139.045C111.593 137.912 109.838 137.132 107.976 136.76C106.114 136.388 104.193 136.434 102.351 136.896C101.149 137.206 99.9441 137.731 99.163 138.696C98.382 139.661 98.1506 141.149 98.8948 142.142L97.826 141.192Z" fill="#2F2E41"/>
<path d="M106.667 171.051C100.911 171.05 95.3485 168.974 90.9999 165.206C86.6513 161.437 83.8082 156.228 82.9922 150.534C82.1762 144.841 83.442 139.044 86.5574 134.207C89.6727 129.371 94.4288 125.819 99.9532 124.203C105.478 122.587 111.4 123.015 116.634 125.409C121.867 127.804 126.062 132.003 128.447 137.238C130.833 142.473 131.25 148.391 129.622 153.908C127.993 159.425 124.429 164.17 119.582 167.273C115.728 169.743 111.246 171.054 106.667 171.051V171.051ZM106.667 123.756C102.039 123.756 97.5138 125.127 93.665 127.696C89.8162 130.266 86.8164 133.918 85.0449 138.191C83.2734 142.464 82.8098 147.166 83.7127 151.702C84.6156 156.238 86.8444 160.405 90.1174 163.675C93.3903 166.946 97.5603 169.173 102.1 170.075C106.64 170.977 111.345 170.514 115.622 168.744C119.898 166.974 123.553 163.976 126.124 160.13C128.695 156.285 130.067 151.763 130.067 147.138C130.06 140.939 127.592 134.996 123.206 130.612C118.819 126.229 112.871 123.763 106.667 123.756V123.756Z" fill="#3F3D56"/>
<path d="M149.922 121.779C151.85 121.779 153.414 120.216 153.414 118.289C153.414 116.362 151.85 114.799 149.922 114.799C147.993 114.799 146.429 116.362 146.429 118.289C146.429 120.216 147.993 121.779 149.922 121.779Z" fill="#47B0EB"/>
<path d="M230.383 137.598H148.197C147.953 137.599 147.71 137.551 147.484 137.457C147.258 137.364 147.052 137.227 146.879 137.054C146.706 136.881 146.568 136.676 146.475 136.45C146.381 136.224 146.333 135.982 146.333 135.737C146.333 135.493 146.381 135.251 146.475 135.025C146.568 134.799 146.706 134.593 146.879 134.42C147.052 134.248 147.258 134.111 147.484 134.017C147.71 133.924 147.953 133.876 148.197 133.876H230.383C230.877 133.876 231.351 134.072 231.7 134.421C232.05 134.77 232.246 135.244 232.246 135.737C232.246 136.231 232.05 136.704 231.7 137.053C231.351 137.402 230.877 137.598 230.383 137.598Z" fill="#E6E6E6"/>
<path d="M203.609 129.689H148.197C147.953 129.689 147.71 129.641 147.484 129.548C147.258 129.454 147.052 129.317 146.879 129.144C146.706 128.971 146.568 128.766 146.475 128.54C146.381 128.314 146.333 128.072 146.333 127.827C146.333 127.583 146.381 127.341 146.475 127.115C146.568 126.889 146.706 126.683 146.879 126.511C147.052 126.338 147.258 126.201 147.484 126.107C147.71 126.014 147.953 125.966 148.197 125.966H203.609C204.103 125.967 204.576 126.163 204.925 126.512C205.273 126.861 205.469 127.334 205.469 127.827C205.469 128.321 205.273 128.794 204.925 129.143C204.576 129.492 204.103 129.688 203.609 129.689V129.689Z" fill="#E6E6E6"/>
<path d="M147.483 161.648C151.081 161.648 153.998 161.325 153.998 160.926C153.998 160.527 151.081 160.203 147.483 160.203C143.884 160.203 140.967 160.527 140.967 160.926C140.967 161.325 143.884 161.648 147.483 161.648Z" fill="#F2F2F2"/>
<path d="M89.2494 76.6234C92.8479 76.6234 95.7651 76.2999 95.7651 75.9008C95.7651 75.5017 92.8479 75.1782 89.2494 75.1782C85.6508 75.1782 82.7336 75.5017 82.7336 75.9008C82.7336 76.2999 85.6508 76.6234 89.2494 76.6234Z" fill="#F2F2F2"/>
</g>
<defs>
<clipPath id="clip0_2_76">
<rect width="237" height="198" fill="white"/>
</clipPath>
</defs>
</svg>
